<svg width="484" height="369" viewBox="0 0 484 369" fill="none" xmlns="http://www.w3.org/2000/svg">
<g clip-path="url(#clip0_11_28)">
<path d="M203.793 0L203.57 1.00688L387.107 1.23065C439.941 1.23065 482.771 44.1188 482.771 97.0245V209.826H484V13.9617C484 6.25088 477.758 0 470.057 0H203.793Z" fill="#E6E6E6"/>
<path d="M405.941 48.0322C408.811 48.0322 411.137 45.6505 411.137 42.7126C411.137 39.7747 408.811 37.3931 405.941 37.3931C403.071 37.3931 400.744 39.7747 400.744 42.7126C400.744 45.6505 403.071 48.0322 405.941 48.0322Z" fill="#3F3D56"/>
<path d="M387.989 48.0322C390.859 48.0322 393.186 45.6505 393.186 42.7126C393.186 39.7747 390.859 37.3931 387.989 37.3931C385.119 37.3931 382.793 39.7747 382.793 42.7126C382.793 45.6505 385.119 48.0322 387.989 48.0322Z" fill="#3F3D56"/>
<path d="M370.038 48.0322C372.908 48.0322 375.234 45.6505 375.234 42.7126C375.234 39.7747 372.908 37.3931 370.038 37.3931C367.168 37.3931 364.841 39.7747 364.841 42.7126C364.841 45.6505 367.168 48.0322 370.038 48.0322Z" fill="#3F3D56"/>
<path d="M327.514 123.168H254.837C252.343 123.168 250.315 121.137 250.315 118.64C250.315 116.143 252.343 114.112 254.837 114.112H327.514C330.008 114.112 332.036 116.143 332.036 118.64C332.036 121.137 330.008 123.168 327.514 123.168Z" fill="#E6E6E6"/>
<path d="M384.232 138.494H254.837C252.343 138.494 250.315 136.462 250.315 133.966C250.315 131.469 252.343 129.438 254.837 129.438H384.232C386.726 129.438 388.754 131.469 388.754 133.966C388.754 136.462 386.726 138.494 384.232 138.494Z" fill="#E6E6E6"/>
<path d="M408.718 162.3H230.351C226.5 162.3 223.367 159.162 223.367 155.306V97.2998C223.367 93.4438 226.5 90.3065 230.351 90.3065H408.718C412.569 90.3065 415.702 93.4438 415.702 97.2998V155.306C415.702 159.162 412.569 162.3 408.718 162.3ZM230.351 91.5372C227.178 91.5372 224.596 94.1222 224.596 97.2998V155.306C224.596 158.484 227.178 161.069 230.351 161.069H408.718C411.892 161.069 414.473 158.484 414.473 155.306V97.2998C414.473 94.1222 411.892 91.5372 408.718 91.5372H230.351Z" fill="#3F3D56"/>
<path d="M412.105 177.829C420.589 177.829 427.467 170.942 427.467 162.446C427.467 153.95 420.589 147.063 412.105 147.063C403.621 147.063 396.743 153.95 396.743 162.446C396.743 170.942 403.621 177.829 412.105 177.829Z" fill="#9B39D7"/>
<path d="M415.868 157.512C414.64 156.028 412.588 155.152 410.682 155.71C408.936 156.221 407.483 157.876 407.646 159.765C407.722 160.642 408.078 161.484 408.692 162.12C409.385 162.839 410.267 163.087 411.236 163.169C412.269 163.257 413.156 163.411 413.845 164.263C414.443 165.005 414.63 165.989 414.287 166.885C413.472 169.017 410.59 169.265 409.385 167.348C408.912 166.596 407.715 167.29 408.191 168.047C409.173 169.61 411.171 170.47 412.967 169.886C414.713 169.317 415.996 167.504 415.833 165.65C415.665 163.724 414.134 162.137 412.231 161.876C411.229 161.739 410.18 161.848 409.502 160.95C408.972 160.248 408.859 159.278 409.259 158.491C409.748 157.532 410.811 156.928 411.875 156.926C413.084 156.924 414.139 157.583 414.891 158.491C415.459 159.178 416.433 158.193 415.868 157.512Z" fill="white"/>
<path d="M410.489 152.928L409.825 172.291C409.804 172.885 410.726 172.884 410.746 172.291L411.411 152.928C411.431 152.333 410.509 152.334 410.489 152.928Z" fill="white"/>
<path d="M412.639 152.928L411.974 172.291C411.954 172.885 412.876 172.884 412.896 172.291L413.56 152.928C413.581 152.333 412.659 152.334 412.639 152.928Z" fill="white"/>
<path d="M58.193 361.005L64.72 361.004L67.8249 335.794L58.1917 335.795L58.193 361.005Z" fill="#A0616A"/>
<path d="M57.9633 367.823L78.0347 367.822V367.568C78.0344 363.248 74.5368 359.746 70.2223 359.745H70.2218L66.5555 356.96L59.7151 359.746L57.963 359.746L57.9633 367.823H57.9633Z" fill="#2F2E41"/>
<path d="M98.0809 361.005L104.608 361.004L107.713 335.794L98.0796 335.795L98.0809 361.005Z" fill="#A0616A"/>
<path d="M97.8512 367.823L117.923 367.822V367.568C117.922 363.248 114.425 359.746 110.11 359.745H110.11L106.443 356.96L99.603 359.746L97.8509 359.746L97.8512 367.823H97.8512Z" fill="#2F2E41"/>
<path d="M52.4271 200.627L112.117 198.965L111.734 232.686L108.585 272.102C108.585 272.102 115.933 301.008 109.635 329.913L109.11 351.987L92.315 350.936C92.315 350.936 89.4284 307.577 93.1023 291.285L82.0806 232.423L71.5838 289.708C71.5838 289.708 73.1584 322.818 68.9596 335.957V348.341H57.0846C57.0846 348.341 44.2921 304.95 53.7392 282.876L52.4271 200.627L52.4271 200.627Z" fill="#2F2E41"/>
<path d="M95.3591 102.638C95.3591 102.638 93.7484 98.5906 92.5458 96.7842C84.1274 96.7842 83.0577 97.3632 75.709 96.7842L55.3104 206.451C55.3104 206.451 44.0958 215.915 56.4104 215.915C68.7251 215.915 86.4811 212.473 91.3497 215.054C96.2183 217.635 111.683 213.62 111.683 213.62L95.3591 102.638Z" fill="#9B39D7"/>
<path d="M76.045 96.5666L68.4933 104.612L63.5059 104.678C58.8932 104.739 55.1961 108.52 55.232 113.139L56.7958 159.224C56.7958 159.224 42.6633 203.066 52.1141 204.787L50.3958 211.383L68.525 222.567C68.525 222.567 74.0232 193.116 74.8824 186.52C75.7416 179.924 80.0114 142.752 80.0114 142.752C80.0114 142.752 79.1782 112.175 78.6054 109.342L76.045 96.5666H76.045Z" fill="#2F2E41"/>
<path d="M92.7816 96.902L89.0586 116.116L98.5094 166.876C98.5094 166.876 96.2183 213.907 103.378 218.496L114.661 215.571L113.802 206.394C113.802 206.394 114.833 204.157 114.261 195.553C113.688 186.95 110.313 171.267 110.313 171.267L115.312 114.109C115.312 114.109 102.805 102.351 97.3638 103.785L92.7816 96.902H92.7816Z" fill="#2F2E41"/>
<path d="M31.0682 204.932L32.2326 189.287L41.2507 188.707L39.4318 205.204C39.7233 205.618 39.9605 206.081 40.1269 206.588C41.0323 209.342 39.5361 212.311 36.7851 213.217C34.034 214.124 31.0698 212.626 30.1644 209.871C29.587 208.114 29.9895 206.273 31.0682 204.932L31.0682 204.932Z" fill="#A0616A"/>
<path d="M65.7937 104.866L61.0429 104.945C57.5313 105.003 54.428 107.246 53.2675 110.566L35.4647 161.489L33.6168 170.985C33.6168 170.985 25.0766 191.49 28.2786 194.592L29.8052 200.303L41.1294 200.115L41.0521 195.436C41.0521 195.436 44.51 195.111 44.4936 190.989C44.4936 190.989 53.4554 175.532 51.084 170.695L57.1892 158.834L65.7937 104.866Z" fill="#2F2E41"/>
<path d="M177.023 185.064L165.531 174.401L158.532 180.126L171.083 190.966C171.151 191.468 171.293 191.969 171.515 192.453C172.726 195.088 175.84 196.241 178.471 195.029C181.102 193.817 182.254 190.699 181.043 188.064C180.272 186.384 178.725 185.31 177.023 185.064Z" fill="#A0616A"/>
<path d="M108.051 108.43L102.287 130.728L122.474 158.508L129.047 165.599C129.047 165.599 157.355 187.744 161.744 186.981L167.252 189.112L173.773 179.839L169.952 177.144C169.952 177.144 171.727 174.155 168.391 171.739C168.391 171.739 144.405 152.227 139.106 151.296L133.133 139.368L114.883 113.91L108.051 108.43Z" fill="#2F2E41"/>
<path d="M94.3164 91.9679C94.2375 92.031 94.1639 92.0784 94.0851 92.1258C93.4754 92.531 92.8394 92.8942 92.1719 93.2047C92.1614 93.2152 92.1457 93.2205 92.1299 93.2257C90.9263 93.7942 89.628 94.2205 88.2562 94.4731C86.8529 94.731 85.4601 94.7994 84.104 94.6889C77.1188 94.1363 71.106 88.9626 69.771 81.7364C69.3242 79.3258 69.4504 76.9469 70.0443 74.7311C71.5843 69.0048 76.2779 64.3838 82.4904 63.2312C91.105 61.6365 99.3779 67.3364 100.97 75.9627C102.148 82.3416 99.3411 88.5363 94.3164 91.9679L94.3164 91.9679Z" fill="#A0616A"/>
<path d="M75.7096 91.5799L76.6666 87.1546C76.6666 87.1546 74.0616 84.8843 76.6666 82.7732L78.0841 81.851H80.2485L81.6462 74.7173L90.5513 74.1228C90.5513 74.1228 99.4564 72.3393 100.644 69.3669C100.644 69.3669 97.6753 68.7725 98.269 66.3945C98.269 66.3945 91.145 57.4773 84.6145 59.8552C78.0841 62.2332 75.7095 64.6111 75.7095 64.6111C75.7095 64.6111 65.0233 62.8276 65.0233 75.9062C65.0233 88.9848 75.7096 91.5799 75.7096 91.5799V91.5799Z" fill="#2F2E41"/>
<path d="M173.317 205.756H155.376C153.431 205.756 151.849 204.171 151.849 202.224V167.896C151.849 165.948 153.431 164.363 155.376 164.363H173.317C175.262 164.363 176.844 165.948 176.844 167.896V202.224C176.844 204.171 175.262 205.756 173.317 205.756Z" fill="#3F3D56"/>
<path d="M176.844 176.99C176.762 176.99 176.695 177.057 176.695 177.14V181.922C176.695 182.004 176.762 182.071 176.844 182.071C176.927 182.071 176.994 182.004 176.994 181.922V177.14C176.994 177.057 176.927 176.99 176.844 176.99Z" fill="#3F3D56"/>
<path d="M176.509 167.896V202.223C176.509 203.918 175.191 205.305 173.525 205.413H173.524C173.499 205.414 173.475 205.416 173.449 205.416C173.405 205.419 173.361 205.419 173.317 205.419C173.317 205.419 173.152 205.407 172.853 205.385C172.55 205.363 172.109 205.329 171.559 205.285C171.394 205.272 171.22 205.258 171.036 205.243C170.671 205.213 170.269 205.18 169.839 205.143C169.667 205.129 169.49 205.113 169.308 205.097C168.382 205.017 167.344 204.924 166.249 204.818C166.064 204.801 165.878 204.783 165.69 204.764C165.64 204.759 165.59 204.754 165.54 204.749C164.76 204.672 163.958 204.589 163.153 204.501C163.103 204.496 163.053 204.491 163.003 204.485C161.616 204.332 160.224 204.166 158.921 203.986C157.919 203.849 156.97 203.704 156.118 203.554C155.841 203.504 155.573 203.455 155.318 203.405C155.268 203.395 155.218 203.386 155.169 203.375C153.366 203.013 152.184 202.623 152.184 202.223V167.896C152.184 166.13 153.613 164.699 155.376 164.699H157.282C157.586 164.699 157.831 164.937 157.857 165.241C157.86 165.261 157.862 165.281 157.866 165.301C157.921 165.607 158.201 165.82 158.511 165.82H170.182C170.492 165.82 170.772 165.607 170.828 165.301C170.831 165.281 170.833 165.261 170.836 165.241C170.862 164.937 171.107 164.699 171.411 164.699H173.317C175.08 164.699 176.509 166.13 176.509 167.896Z" fill="#9B39D7"/>
<path d="M151.774 173.404C151.692 173.404 151.625 173.471 151.625 173.553V174.749C151.625 174.831 151.692 174.898 151.774 174.898C151.856 174.898 151.923 174.831 151.923 174.749V173.553C151.923 173.471 151.856 173.404 151.774 173.404Z" fill="#3F3D56"/>
<path d="M151.774 176.99C151.692 176.99 151.625 177.057 151.625 177.14V179.456C151.625 179.538 151.692 179.605 151.774 179.605C151.856 179.605 151.923 179.538 151.923 179.456V177.14C151.923 177.057 151.856 176.99 151.774 176.99Z" fill="#3F3D56"/>
<path d="M151.774 180.278C151.692 180.278 151.625 180.345 151.625 180.427V182.743C151.625 182.826 151.692 182.893 151.774 182.893C151.856 182.893 151.923 182.826 151.923 182.743V180.427C151.923 180.345 151.856 180.278 151.774 180.278Z" fill="#3F3D56"/>
<path d="M157.072 165.223H154.535C154.432 165.223 154.348 165.306 154.348 165.409C154.348 165.513 154.432 165.596 154.535 165.596H157.072C157.175 165.596 157.258 165.513 157.258 165.409C157.258 165.306 157.175 165.223 157.072 165.223Z" fill="#3F3D56"/>
<path d="M171.883 165.596C172.047 165.596 172.181 165.462 172.181 165.297C172.181 165.132 172.047 164.998 171.883 164.998C171.718 164.998 171.584 165.132 171.584 165.297C171.584 165.462 171.718 165.596 171.883 165.596Z" fill="#3F3D56"/>
<path d="M172.703 165.596C172.868 165.596 173.002 165.462 173.002 165.297C173.002 165.132 172.868 164.998 172.703 164.998C172.538 164.998 172.405 165.132 172.405 165.297C172.405 165.462 172.538 165.596 172.703 165.596Z" fill="#3F3D56"/>
<path d="M173.524 165.596C173.689 165.596 173.823 165.462 173.823 165.297C173.823 165.132 173.689 164.998 173.524 164.998C173.359 164.998 173.226 165.132 173.226 165.297C173.226 165.462 173.359 165.596 173.524 165.596Z" fill="#3F3D56"/>
<path d="M164.743 194.846C169.961 194.846 174.19 190.61 174.19 185.386C174.19 180.161 169.961 175.926 164.743 175.926C159.526 175.926 155.296 180.161 155.296 185.386C155.296 190.61 159.526 194.846 164.743 194.846Z" fill="white"/>
<path d="M167.058 182.351C166.302 181.439 165.04 180.9 163.868 181.243C162.795 181.557 161.901 182.575 162.001 183.737C162.048 184.276 162.267 184.794 162.644 185.185C163.07 185.627 163.613 185.78 164.209 185.83C164.844 185.884 165.39 185.979 165.813 186.503C166.181 186.959 166.296 187.564 166.085 188.116C165.584 189.426 163.811 189.579 163.07 188.4C162.78 187.938 162.044 188.365 162.336 188.83C162.94 189.791 164.169 190.32 165.273 189.961C166.347 189.611 167.136 188.496 167.036 187.356C166.932 186.171 165.991 185.196 164.821 185.035C164.204 184.951 163.56 185.018 163.143 184.466C162.817 184.034 162.747 183.437 162.993 182.954C163.294 182.363 163.947 181.992 164.602 181.991C165.345 181.99 165.994 182.395 166.456 182.953C166.806 183.376 167.404 182.77 167.058 182.351V182.351Z" fill="#9B39D7"/>
<path d="M163.749 179.532L163.341 191.44C163.328 191.805 163.895 191.805 163.908 191.44L164.316 179.532C164.329 179.167 163.762 179.167 163.749 179.532Z" fill="#9B39D7"/>
<path d="M165.071 179.532L164.663 191.44C164.65 191.805 165.217 191.805 165.23 191.44L165.638 179.532C165.651 179.167 165.084 179.167 165.071 179.532Z" fill="#9B39D7"/>
<path d="M32.6265 358.563C31.3843 358.641 30.6977 357.096 31.6376 356.195L31.7311 355.823C31.7188 355.793 31.7064 355.763 31.6939 355.733C30.4376 352.734 26.1799 352.754 24.9343 355.758C23.8288 358.425 22.4212 361.096 22.0746 363.915C21.9192 365.159 21.9891 366.427 22.2649 367.648C19.6744 361.982 18.3112 355.794 18.3112 349.572C18.3112 348.009 18.3967 346.445 18.5714 344.886C18.7151 343.61 18.9132 342.342 19.1695 341.086C20.556 334.296 23.5582 327.828 27.8886 322.426C29.9704 321.287 31.7064 319.505 32.755 317.37C33.1317 316.6 33.4269 315.772 33.5667 314.928C33.3298 314.959 32.6735 311.346 32.8521 311.124C32.522 310.623 31.9311 310.373 31.5705 309.884C29.7772 307.449 27.3065 307.874 26.0166 311.183C23.2613 312.575 23.2346 314.885 24.9253 317.106C26.0009 318.519 26.1487 320.431 27.0925 321.944C26.9953 322.068 26.8944 322.189 26.7973 322.313C25.0168 324.6 23.4768 327.058 22.1786 329.64C22.5455 326.771 22.0038 323.313 21.0803 321.084C20.0291 318.545 18.0588 316.406 16.3237 314.211C14.2395 311.574 9.96579 312.725 9.5986 316.068C9.59505 316.1 9.59159 316.132 9.5882 316.165C9.84592 316.31 10.0984 316.465 10.345 316.628C11.7518 317.56 11.2656 319.744 9.59876 320.001L9.56102 320.007C9.65424 320.937 9.81347 321.858 10.0465 322.764C7.82055 331.384 12.6262 334.524 19.488 334.665C19.6394 334.743 19.787 334.821 19.9385 334.895C19.2433 336.855 18.6879 338.865 18.2762 340.903C17.9073 342.704 17.6509 344.524 17.5073 346.352C17.3286 348.658 17.3441 350.976 17.5383 353.278L17.5267 353.197C17.0335 350.661 15.6586 348.292 13.6623 346.651C10.6884 344.205 6.48693 343.304 3.27867 341.338C1.7343 340.391 -0.244689 341.615 0.0248429 343.407L0.0379635 343.493C0.515664 343.688 0.981705 343.913 1.43223 344.166C1.68995 344.312 1.94243 344.466 2.18907 344.63C3.59583 345.561 3.10965 347.745 1.4428 348.003L1.40502 348.008C1.37784 348.012 1.35453 348.016 1.32739 348.02C2.14687 349.969 3.28868 351.777 4.71791 353.337C6.10972 360.861 12.0876 361.575 18.4821 359.384H18.486C19.1851 362.433 20.2065 365.412 21.5192 368.251H32.355C32.3939 368.131 32.4288 368.006 32.4638 367.886C31.4617 367.948 30.4519 367.89 29.4654 367.707C30.2694 366.719 31.0733 365.723 31.8773 364.735C31.8967 364.716 31.9123 364.697 31.9278 364.677C32.3356 364.172 32.7473 363.67 33.1551 363.164L33.1553 363.164C33.1808 361.612 32.995 360.065 32.6269 358.564L32.6265 358.563Z" fill="#F2F2F2"/>
<path d="M153.822 368.283C153.822 368.681 153.503 369 153.106 369H0.799851C0.403003 369 0.0842896 368.681 0.0842896 368.283C0.0842896 367.886 0.403003 367.567 0.799851 367.567H153.106C153.503 367.567 153.822 367.886 153.822 368.283Z" fill="#CCCCCC"/>
</g>
<defs>
<clipPath id="clip0_11_28">
<rect width="484" height="369" fill="white"/>
</clipPath>
</defs>
</svg>
