<svg width="58" height="48" viewBox="0 0 58 48" fill="none" xmlns="http://www.w3.org/2000/svg">
<path d="M15.1912 26.0926H20.9706V31.4102H15.1912V26.0926Z" fill="black"/>
<path d="M52.2682 18.5909L49.8072 9.37003C-7.22036 21.8941 5.26137 19.1525 2.21631 19.8215L5.9108 33.7105C6.06041 34.2769 6.53367 34.7035 7.11297 34.871V21.9677C7.11297 20.106 8.77653 18.5913 10.8214 18.5913L52.2682 18.5909Z" fill="black"/>
<path d="M47.643 1.24055C47.4485 0.510142 46.7357 0 45.91 0C45.7691 0 45.6269 0.0154478 45.4878 0.0459484L1.36621 9.73295C0.409658 9.94328 -0.181332 10.821 0.0502576 11.6905L0.313717 12.6804L47.9069 2.23092L47.643 1.24055Z" fill="black"/>
<path d="M56.2178 20.3411H10.8211C9.83835 20.3411 9.03882 21.0711 9.03882 21.9679V46.3732C9.03882 47.27 9.83835 48 10.8211 48H56.2178C57.2006 48 58.0001 47.27 58.0001 46.3732V21.9679C58.0001 21.0711 57.2006 20.3411 56.2178 20.3411ZM19.9674 44.1218H14.2285C13.6963 44.1218 13.2654 43.73 13.2654 43.2472C13.2654 42.764 13.6968 42.3726 14.2285 42.3726H19.9674C20.4996 42.3726 20.9305 42.7643 20.9305 43.2472C20.9305 43.73 20.4996 44.1218 19.9674 44.1218ZM22.8977 32.2852C22.8977 32.7684 22.4663 33.1598 21.9346 33.1598H14.2289C13.6968 33.1598 13.2658 32.768 13.2658 32.2852V25.2184C13.2658 24.7351 13.6972 24.3438 14.2289 24.3438H21.9346C22.4667 24.3438 22.8977 24.7355 22.8977 25.2184V32.2852ZM30.6557 44.1218H24.9168C24.3847 44.1218 23.9537 43.73 23.9537 43.2472C23.9537 42.764 24.3851 42.3726 24.9168 42.3726H30.6557C31.1879 42.3726 31.6188 42.7643 31.6188 43.2472C31.6188 43.73 31.1874 44.1218 30.6557 44.1218ZM41.344 44.1218H35.6051C35.073 44.1218 34.642 43.73 34.642 43.2472C34.642 42.764 35.0734 42.3726 35.6051 42.3726H41.344C41.8762 42.3726 42.3071 42.7643 42.3071 43.2472C42.3071 43.73 41.8758 44.1218 41.344 44.1218ZM52.0324 44.1218H46.2934C45.7613 44.1218 45.3303 43.73 45.3303 43.2472C45.3303 42.764 45.7617 42.3726 46.2934 42.3726H52.0324C52.5645 42.3726 52.9954 42.7643 52.9954 43.2472C52.9954 43.73 52.5641 44.1218 52.0324 44.1218ZM52.6735 30.1689H34.7393C34.2071 30.1689 33.7762 29.7772 33.7762 29.2943C33.7762 28.8111 34.2076 28.4197 34.7393 28.4197H52.6735C53.2057 28.4197 53.6366 28.8115 53.6366 29.2943C53.6366 29.7772 53.2053 30.1689 52.6731 30.1689H52.6735ZM52.6735 26.0931H34.7393C34.2071 26.0931 33.7762 25.7013 33.7762 25.2185C33.7762 24.7352 34.2076 24.3439 34.7393 24.3439H52.6735C53.2057 24.3439 53.6366 24.7356 53.6366 25.2185C53.6366 25.7013 53.2053 26.0931 52.6731 26.0931H52.6735Z" fill="black"/>
<path d="M49.355 7.66892L48.36 3.93207L0.766846 14.3815L1.76222 18.1195C4.40597 17.5392 -11.251 20.977 49.3543 7.66902L49.355 7.66892Z" fill="black"/>
</svg>
