<svg width="486" height="315" viewBox="0 0 486 315" fill="none" xmlns="http://www.w3.org/2000/svg">
<g clip-path="url(#clip0_17_175)">
<path d="M15.4029 241.761C17.8114 217.187 32.3686 192.657 55.5308 184.077C46.9719 209.529 47.6953 237.187 57.5731 262.157C61.4174 271.773 66.6949 282.068 63.5723 291.942C61.6294 298.086 56.6095 302.879 50.9383 305.941C45.2668 309.004 38.9245 310.559 32.6612 312.083L31.4483 313.141C20.8606 290.832 12.9944 266.335 15.4029 241.761Z" fill="#F0F0F0"/>
<path d="M55.7748 184.534C42.6971 199.964 34.466 219.669 33.0269 239.871C32.7157 244.238 32.7803 248.696 33.8451 252.965C34.9149 257.118 37.0778 260.91 40.1092 263.945C42.8788 266.832 46.0462 269.464 48.0655 272.974C50.194 276.673 50.3832 280.934 49.097 284.956C47.5233 289.876 44.2747 293.938 40.9596 297.8C37.2789 302.088 33.3879 306.484 31.9217 312.08C31.7441 312.758 30.702 312.442 30.8794 311.765C33.4302 302.03 42.6709 296.297 46.919 287.477C48.9012 283.362 49.6547 278.624 47.5853 274.388C45.7756 270.684 42.5117 267.967 39.6821 265.068C36.7111 262.025 34.4061 258.66 33.157 254.561C31.8792 250.367 31.6401 245.902 31.8382 241.546C32.361 231.671 34.434 221.939 37.9811 212.708C41.9709 202.15 47.7382 192.351 55.0334 183.737C55.4852 183.204 56.2236 184.005 55.7748 184.534L55.7748 184.534Z" fill="white"/>
<path d="M33.148 233.28C29.7637 232.551 26.7487 230.644 24.6413 227.898C22.534 225.153 21.4716 221.748 21.6438 218.292C21.6521 218.151 21.7148 218.019 21.8187 217.923C21.9226 217.828 22.0595 217.776 22.2007 217.78C22.3418 217.783 22.4762 217.841 22.5754 217.942C22.6746 218.042 22.7309 218.177 22.7325 218.318C22.5661 221.536 23.5561 224.708 25.5237 227.26C27.4913 229.813 30.3069 231.578 33.4623 232.238C34.1479 232.382 33.8296 233.423 33.148 233.28Z" fill="white"/>
<path d="M38.512 262.666C44.4914 258.883 48.8246 252.985 50.6473 246.15C50.8274 245.473 51.8695 245.788 51.6897 246.464C49.7796 253.574 45.2578 259.701 39.0268 263.625C38.4327 263.999 37.9211 263.038 38.512 262.666Z" fill="white"/>
<path d="M43.0074 203.154C44.2581 203.708 45.6271 203.944 46.9913 203.839C48.3555 203.734 49.6723 203.292 50.8234 202.553C51.4125 202.172 51.9235 203.133 51.3382 203.512C50.0626 204.323 48.6078 204.809 47.1008 204.928C45.5938 205.047 44.0805 204.796 42.6931 204.196C42.5576 204.15 42.4446 204.055 42.3769 203.929C42.3093 203.803 42.2922 203.656 42.3291 203.518C42.3714 203.38 42.4664 203.265 42.5934 203.196C42.7204 203.128 42.8692 203.113 43.0074 203.154H43.0074Z" fill="white"/>
<path d="M127.907 225.971C127.546 226.219 127.185 226.467 126.824 226.725C121.987 230.088 117.43 233.839 113.201 237.94C112.869 238.252 112.537 238.573 112.214 238.893C102.129 248.882 93.9873 260.655 88.2019 273.615C85.9045 278.774 84.0031 284.1 82.5141 289.548C80.4582 297.071 78.828 305.391 74.5322 311.613C74.0914 312.267 73.6104 312.894 73.092 313.488L32.8326 314.538C32.7399 314.494 32.647 314.46 32.5539 314.416L30.9484 314.532C31.0055 314.245 31.071 313.95 31.1281 313.663C31.1606 313.497 31.202 313.331 31.2345 313.164C31.259 313.053 31.2839 312.942 31.2997 312.841C31.3077 312.804 31.3161 312.767 31.3244 312.739C31.3401 312.638 31.3656 312.545 31.3815 312.453C31.7428 310.799 32.1163 309.145 32.502 307.49C32.5018 307.481 32.5018 307.481 32.5105 307.471C35.4819 294.871 39.5318 282.408 45.3454 270.956C45.5204 270.611 45.6948 270.257 45.8882 269.912C48.5374 264.765 51.603 259.842 55.0545 255.194C56.9526 252.654 58.9781 250.213 61.1232 247.878C66.6774 241.857 73.1446 236.746 80.2876 232.734C94.5284 224.737 111.169 221.381 126.722 225.634C127.12 225.743 127.509 225.852 127.907 225.971Z" fill="#F0F0F0"/>
<path d="M127.83 226.484C108.095 230.933 89.6537 241.713 76.3369 256.977C73.4578 260.277 70.8245 263.875 69.1032 267.924C67.4557 271.884 66.8991 276.213 67.4913 280.461C67.9639 284.433 68.9074 288.441 68.4059 292.458C67.8773 296.693 65.4618 300.209 62.0125 302.646C57.7921 305.628 52.7516 306.916 47.7786 308.004C42.257 309.213 36.5027 310.381 31.9616 313.966C31.4114 314.401 30.7692 313.522 31.3186 313.088C39.2193 306.85 50.0505 307.834 58.7547 303.348C62.8162 301.255 66.2713 297.926 67.1702 293.299C67.9563 289.252 66.9869 285.118 66.4736 281.101C65.9347 276.883 66.1208 272.809 67.5928 268.784C69.0985 264.667 71.5966 260.958 74.3787 257.599C80.7441 250.029 88.2608 243.506 96.6533 238.27C106.198 232.241 116.705 227.889 127.718 225.401C128.4 225.248 128.507 226.331 127.83 226.484H127.83Z" fill="white"/>
<path d="M80.4036 251.787C78.1402 249.169 76.8817 245.832 76.8527 242.371C76.8237 238.911 78.0262 235.553 80.2455 232.897C80.6963 232.361 81.5505 233.036 81.0991 233.573C79.028 236.042 77.9081 239.17 77.9417 242.393C77.9753 245.615 79.16 248.719 81.2821 251.144C81.7426 251.672 80.8615 252.312 80.4036 251.787Z" fill="white"/>
<path d="M66.9864 278.479C74.0395 279.056 81.0513 276.955 86.6237 272.595C87.1754 272.162 87.8178 273.041 87.2667 273.473C81.4595 278 74.1582 280.171 66.8199 279.554C66.1205 279.495 66.2908 278.42 66.9864 278.479H66.9864Z" fill="white"/>
<path d="M106.421 233.667C107.086 234.863 108.037 235.874 109.189 236.612C110.342 237.349 111.659 237.788 113.024 237.891C113.724 237.941 113.553 239.016 112.857 238.966C111.35 238.846 109.896 238.359 108.621 237.547C107.346 236.735 106.289 235.624 105.543 234.31C105.462 234.192 105.429 234.048 105.451 233.906C105.473 233.765 105.548 233.637 105.66 233.549C105.777 233.465 105.923 233.43 106.065 233.452C106.207 233.474 106.335 233.551 106.421 233.667Z" fill="white"/>
<path d="M364.195 21.5608C363.594 19.7867 356.056 13.7558 360.675 12.7422L364.463 17.7908L381.878 0.38327L383.629 2.13407L364.195 21.5608Z" fill="#BD61FF"/>
<path d="M364.195 80.7539C363.594 78.9797 356.056 72.9489 360.675 71.9352L364.463 76.9839L381.878 59.5763L383.629 61.3271L364.195 80.7539Z" fill="#BD61FF"/>
<path d="M364.195 140.792C363.594 139.018 356.056 132.987 360.675 131.974L364.463 137.022L381.878 119.615L383.629 121.366L364.195 140.792Z" fill="#BD61FF"/>
<path d="M348.158 92.2528C351.126 92.2528 353.532 89.8478 353.532 86.8811C353.532 83.9144 351.126 81.5094 348.158 81.5094C345.19 81.5094 342.784 83.9144 342.784 86.8811C342.784 89.8478 345.19 92.2528 348.158 92.2528Z" fill="#3F3D56"/>
<path d="M348.158 33.7012C351.126 33.7012 353.532 31.2962 353.532 28.3295C353.532 25.3627 351.126 22.9577 348.158 22.9577C345.19 22.9577 342.784 25.3627 342.784 28.3295C342.784 31.2962 345.19 33.7012 348.158 33.7012Z" fill="#3F3D56"/>
<path d="M486 15.9745H399.479V17.0488H486V15.9745Z" fill="#3F3D56"/>
<path d="M350.845 154.669C353.813 154.669 356.219 152.264 356.219 149.297C356.219 146.33 353.813 143.925 350.845 143.925C347.877 143.925 345.471 146.33 345.471 149.297C345.471 152.264 347.877 154.669 350.845 154.669Z" fill="#3F3D56"/>
<path d="M486 75.1674H399.479V76.2417H486V75.1674Z" fill="#3F3D56"/>
<path d="M486 135.206H399.479V136.28H486V135.206Z" fill="#3F3D56"/>
<path d="M377.768 148.796H350.898V121.401H369.169V122.475H351.973V147.722H376.693V135.367H377.768V148.796Z" fill="#3F3D56"/>
<path d="M377.768 88.6332H350.898V61.2375H369.169V62.3118H351.973V87.5589H376.693V75.2039H377.768V88.6332Z" fill="#3F3D56"/>
<path d="M377.768 27.3957H350.898V0H369.169V1.07434H351.973V26.3214H376.693V13.9664H377.768V27.3957Z" fill="#3F3D56"/>
<path d="M202.332 97.6424C202.332 97.6424 195.151 127.95 203.928 127.95C212.705 127.95 233.45 93.6545 233.45 93.6545L226.269 84.8812L213.38 102.769L212.705 93.6546L202.332 97.6424Z" fill="#A0616A"/>
<path d="M231.537 94.9721C235.395 94.9721 238.523 91.8456 238.523 87.9889C238.523 84.1322 235.395 81.0057 231.537 81.0057C227.679 81.0057 224.551 84.1322 224.551 87.9889C224.551 91.8456 227.679 94.9721 231.537 94.9721Z" fill="#A0616A"/>
<path d="M196.243 304.064L205.542 304.064L209.966 268.21L196.241 268.211L196.243 304.064Z" fill="#A0616A"/>
<path d="M195.916 313.761L224.512 313.76V313.399C224.512 310.448 223.339 307.618 221.252 305.532C219.164 303.445 216.334 302.273 213.382 302.273H213.381L208.157 298.312L198.412 302.274L195.915 302.274L195.916 313.761Z" fill="#2F2E41"/>
<path d="M96.2142 292.468L104.535 296.618L124.511 266.512L112.23 260.386L96.2142 292.468Z" fill="#A0616A"/>
<path d="M91.589 300.997L117.176 313.761L117.338 313.438C118.656 310.798 118.871 307.742 117.935 304.944C116.999 302.145 114.99 299.833 112.349 298.515L112.348 298.514L109.444 292.638L98.9542 291.833L96.7207 290.719L91.589 300.997Z" fill="#2F2E41"/>
<path d="M306.235 313.796H0V315H306.235V313.796Z" fill="#CCCCCC"/>
<path d="M136.121 152.625C136.121 152.625 132.405 197.29 131.607 206.861C131.06 212.861 129.719 218.761 127.618 224.408C127.618 224.408 126.022 227.598 126.022 230.788L107.936 263.644C107.936 263.644 102.409 267.704 103.207 270.895C104.005 274.085 99.875 275.999 99.875 275.999L118.921 279.668C118.921 279.668 118.123 277.275 120.517 276.478C122.911 275.68 124.816 268.762 124.816 268.762L151.555 225.205L170.705 185.327C170.705 185.327 181.875 221.217 184.269 225.205C184.269 225.205 193.046 269.869 194.642 273.857C196.238 277.845 197.036 277.845 196.238 279.44C195.44 281.036 195.44 282.631 196.238 283.428C197.036 284.226 212.196 283.428 212.196 283.428L208.206 226.8L201.025 159.007L164.321 147.841L136.121 152.625Z" fill="#2F2E41"/>
<path d="M172.056 45.9989C181.31 45.9989 188.812 38.5001 188.812 29.2498C188.812 19.9996 181.31 12.5007 172.056 12.5007C162.802 12.5007 155.3 19.9996 155.3 29.2498C155.3 38.5001 162.802 45.9989 172.056 45.9989Z" fill="#A0616A"/>
<path d="M202.621 70.4758L182.674 58.3956C182.674 58.3956 182.121 50.8941 176.438 50.5411C173.584 50.3639 169.302 50.093 162.877 49.6789C161.519 49.5913 160.602 57.0178 159.046 56.917L137.99 62.5001L141.182 116.735C141.182 116.735 136.395 138.27 137.99 142.257C139.586 146.245 134.001 147.841 135.597 148.638C137.193 149.436 135.597 155.019 135.597 155.019C135.597 155.019 166.715 170.97 201.025 159.007L197.834 148.638C198.268 147.283 198.349 145.839 198.07 144.443C197.791 143.048 197.16 141.746 196.238 140.662C196.238 140.662 199.429 135.877 195.44 131.889C195.44 131.889 197.036 124.711 193.046 121.521L192.248 110.354L194.642 104.771L202.621 70.4758Z" fill="#E6E6E6"/>
<path d="M157.516 38.8181L157.048 37.7306C156.988 37.59 151.062 23.5874 156.314 14.9502C158.746 10.9516 163.167 8.69402 169.455 8.24078C179.293 7.52971 186.026 9.8625 189.473 15.1694C190.051 16.0689 190.376 17.1073 190.413 18.1756C190.451 19.244 190.2 20.3027 189.687 21.2404C189.173 22.1782 188.417 22.9604 187.496 23.5048C186.576 24.0492 185.526 24.3357 184.457 24.3341H184.324L182.517 21.9879L182.411 22.2161C181.757 23.6314 180.254 24.4063 178.493 24.2366C178.194 24.2151 177.929 24.4734 177.716 25.0263C177.644 25.2682 177.509 25.4863 177.323 25.6577C177.138 25.8292 176.91 25.9477 176.664 26.0007C175.363 26.2539 173.509 24.6161 172.679 23.7999C172.647 23.9877 172.575 24.1665 172.468 24.3242C172.361 24.4818 172.221 24.6147 172.058 24.7137C171.184 25.2181 169.822 24.5592 169.432 24.3494C166.319 25.0103 164.305 24.8335 163.442 23.8245C162.857 27.9627 161.601 35.4112 160.095 35.824C159.937 35.8602 159.773 35.8449 159.625 35.7802C159.477 35.7155 159.353 35.605 159.273 35.465C158.91 34.9944 158.586 34.7599 158.384 34.8258C157.894 34.9815 157.605 36.5941 157.563 37.6349L157.516 38.8181Z" fill="#2F2E41"/>
<path d="M193.844 71.2734L201.804 69.9808C207.537 75.4875 211.443 82.6198 212.994 90.4152C215.388 103.176 216.185 105.569 216.185 105.569L197.036 110.355L186.663 90.4152L193.844 71.2734Z" fill="#E6E6E6"/>
<path d="M158.525 87.8718L153.606 150.202L279.134 160.1L284.052 97.7697L158.525 87.8718Z" fill="white"/>
<path d="M171.936 92.7009C168.864 90.508 164.964 90.3495 163.474 90.381C163.928 91.7992 165.341 95.4366 168.413 97.6304C171.492 99.8288 175.388 99.9825 176.875 99.9518C176.421 98.5341 175.008 94.8952 171.936 92.7009Z" fill="#BD61FF"/>
<path d="M184.054 132.363L163.898 130.773C163.303 130.727 162.704 130.797 162.136 130.982C161.567 131.166 161.041 131.461 160.587 131.848C160.132 132.236 159.759 132.71 159.488 133.242C159.216 133.774 159.052 134.354 159.005 134.949C158.958 135.544 159.029 136.143 159.214 136.711C159.398 137.279 159.693 137.805 160.081 138.259C160.469 138.713 160.942 139.087 161.475 139.358C162.007 139.629 162.587 139.793 163.183 139.84L183.339 141.429C184.542 141.524 185.733 141.137 186.651 140.354C187.568 139.571 188.137 138.456 188.232 137.254C188.327 136.051 187.94 134.861 187.156 133.943C186.373 133.026 185.257 132.458 184.054 132.363Z" fill="#BD61FF"/>
<path d="M279.104 91.7111L166.095 82.7994C164.78 82.696 163.458 82.8523 162.204 83.2595C160.951 83.6668 159.789 84.3169 158.786 85.1728C157.784 86.0287 156.96 87.0737 156.361 88.248C155.762 89.4223 155.401 90.7029 155.298 92.0168L150.952 147.05C150.743 149.705 151.597 152.333 153.326 154.358C155.056 156.383 157.519 157.638 160.174 157.848L273.183 166.76C274.497 166.863 275.819 166.707 277.073 166.3C278.327 165.893 279.489 165.243 280.491 164.387C281.494 163.531 282.318 162.486 282.917 161.311C283.515 160.137 283.877 158.856 283.98 157.543L288.11 105.235L288.193 104.167L288.325 102.504C288.429 101.19 288.272 99.8685 287.865 98.615C287.457 97.3616 286.807 96.2006 285.951 95.1984C285.094 94.1962 284.049 93.3724 282.874 92.7741C281.699 92.1757 280.418 91.8145 279.104 91.7111ZM275.767 139.593L275.051 148.66C274.92 150.261 274.16 151.746 272.937 152.789C271.715 153.832 270.129 154.348 268.526 154.226L253.407 153.035C251.805 152.904 250.32 152.144 249.277 150.922C248.233 149.7 247.716 148.115 247.839 146.513L248.555 137.446C248.687 135.845 249.447 134.361 250.669 133.318C251.892 132.275 253.478 131.758 255.08 131.88L270.194 133.073C271.796 133.204 273.281 133.963 274.325 135.185C275.369 136.406 275.887 137.991 275.767 139.593ZM158.005 134.866C158.123 133.399 158.817 132.038 159.937 131.082C161.057 130.126 162.51 129.653 163.978 129.767L184.133 131.358C184.861 131.414 185.571 131.613 186.222 131.944C186.874 132.274 187.453 132.73 187.928 133.284C188.403 133.839 188.764 134.481 188.99 135.175C189.216 135.869 189.304 136.601 189.247 137.329C189.19 138.057 188.99 138.766 188.659 139.417C188.328 140.067 187.872 140.646 187.316 141.12C186.761 141.595 186.118 141.955 185.424 142.18C184.729 142.406 183.997 142.493 183.269 142.435L183.258 142.438L163.103 140.848C162.375 140.79 161.666 140.59 161.015 140.258C160.365 139.926 159.787 139.469 159.313 138.913C158.84 138.358 158.48 137.714 158.256 137.02C158.032 136.325 157.946 135.593 158.005 134.866ZM162.32 90.0217L162.182 89.4581L162.762 89.405C162.989 89.3806 168.35 88.8995 172.524 91.8795C176.698 94.8595 177.977 100.088 178.033 100.307L178.166 100.871L177.587 100.93C176.766 100.991 175.941 100.985 175.121 100.914C172.512 100.761 169.991 99.9101 167.824 98.4501C163.65 95.4701 162.371 90.2417 162.32 90.0217Z" fill="#BD61FF"/>
<path d="M258.812 145.606L252.261 145.09C251.794 145.054 251.331 145.205 250.975 145.509C250.619 145.814 250.398 146.247 250.361 146.714C250.324 147.181 250.474 147.644 250.778 148C251.082 148.357 251.515 148.578 251.983 148.616L258.533 149.132C259.001 149.168 259.463 149.017 259.819 148.713C260.175 148.408 260.396 147.975 260.433 147.508C260.47 147.041 260.32 146.579 260.016 146.222C259.712 145.865 259.279 145.644 258.812 145.606Z" fill="#BD61FF"/>
<path d="M270.905 146.56L264.354 146.043C263.887 146.008 263.425 146.159 263.069 146.463C262.713 146.768 262.493 147.201 262.456 147.668C262.419 148.134 262.569 148.597 262.873 148.953C263.177 149.31 263.609 149.531 264.076 149.569L270.627 150.086C271.094 150.121 271.556 149.97 271.912 149.666C272.268 149.362 272.489 148.928 272.525 148.462C272.562 147.995 272.412 147.532 272.109 147.176C271.805 146.819 271.372 146.598 270.905 146.56Z" fill="#BD61FF"/>
<path d="M259.169 141.073L252.619 140.557C252.151 140.521 251.689 140.672 251.333 140.976C250.977 141.281 250.757 141.714 250.72 142.181C250.683 142.648 250.833 143.11 251.137 143.466C251.441 143.823 251.873 144.044 252.34 144.082L258.891 144.599C259.358 144.635 259.821 144.484 260.177 144.18C260.533 143.875 260.754 143.442 260.791 142.975C260.828 142.508 260.678 142.045 260.374 141.689C260.07 141.332 259.636 141.111 259.169 141.073Z" fill="#BD61FF"/>
<path d="M271.263 142.027L264.712 141.51C264.245 141.474 263.782 141.625 263.426 141.93C263.07 142.234 262.849 142.667 262.813 143.134C262.776 143.601 262.926 144.064 263.23 144.42C263.534 144.777 263.967 144.998 264.434 145.036L270.985 145.553C271.452 145.589 271.914 145.438 272.271 145.133C272.627 144.829 272.848 144.396 272.884 143.929C272.921 143.461 272.771 142.999 272.467 142.642C272.163 142.286 271.73 142.064 271.263 142.027Z" fill="#BD61FF"/>
<path d="M259.527 136.54L252.976 136.023C252.509 135.987 252.046 136.138 251.69 136.443C251.334 136.747 251.113 137.18 251.077 137.647C251.04 138.115 251.19 138.577 251.494 138.934C251.798 139.29 252.231 139.512 252.698 139.549L259.249 140.066C259.716 140.101 260.178 139.95 260.534 139.646C260.89 139.342 261.11 138.908 261.147 138.442C261.184 137.975 261.034 137.512 260.73 137.156C260.427 136.799 259.994 136.578 259.527 136.54Z" fill="#BD61FF"/>
<path d="M271.621 137.494L265.07 136.977C264.603 136.941 264.141 137.092 263.785 137.397C263.429 137.701 263.208 138.134 263.171 138.601C263.135 139.068 263.285 139.53 263.588 139.887C263.892 140.243 264.325 140.465 264.792 140.503L271.342 141.019C271.81 141.055 272.272 140.904 272.628 140.6C272.984 140.295 273.204 139.862 273.241 139.395C273.278 138.928 273.128 138.466 272.824 138.109C272.52 137.753 272.088 137.531 271.621 137.494Z" fill="#BD61FF"/>
<path d="M153.618 109.381L153.534 110.453L286.191 120.869L286.275 119.798L153.618 109.381Z" fill="white"/>
<path d="M288.193 104.167L288.11 105.236L283.493 104.873L234.304 101.011L234.393 99.9412L283.577 103.805L288.193 104.167Z" fill="#3F3D56"/>
<path d="M126.022 92.8079C126.022 92.8079 118.841 123.116 127.618 123.116C136.395 123.116 157.14 88.82 157.14 88.82L149.959 80.0467L137.07 97.9344L136.395 88.82L126.022 92.8079Z" fill="#A0616A"/>
<path d="M155.227 90.1376C159.085 90.1376 162.213 87.0111 162.213 83.1544C162.213 79.2976 159.085 76.1711 155.227 76.1711C151.368 76.1711 148.241 79.2976 148.241 83.1544C148.241 87.0111 151.368 90.1376 155.227 90.1376Z" fill="#A0616A"/>
<path d="M143.803 67.2855L139.015 62.5001C139.015 62.5001 129.441 68.0831 128.643 73.6661C127.845 79.2492 123.855 96.7958 123.855 96.7958L138.617 97.9921L143.404 90.814L143.803 67.2855Z" fill="#E6E6E6"/>
</g>
<defs>
<clipPath id="clip0_17_175">
<rect width="486" height="315" fill="white"/>
</clipPath>
</defs>
</svg>
